<?xml version="1.0" encoding="utf-8"?>
<!-- Generator: Adobe Illustrator 19.0.0, SVG Export Plug-In . SVG Version: 6.00 Build 0)  -->
<svg version="1.1" xmlns="http://www.w3.org/2000/svg" xmlns:xlink="http://www.w3.org/1999/xlink" x="0px" y="0px"
	 viewBox="144.38 -78.17 156.42 277.17" style="enable-background:new 144.38 -78.17 156.42 277.17;" xml:space="preserve">
<style type="text/css">
	.st0{fill:#046938;}
</style>
<g id="Layer_2">
	<g>
		<g>
			<path class="st0" d="M510.94,119.26c-23.1,0-42.22-8.58-51.56-13.69c-1.47-0.81-3.23-0.89-4.78-0.22
				c-1.54,0.67-2.68,2.01-3.1,3.64l-9.79,38.18c-0.61,2.4,0.47,4.91,2.64,6.11c13.28,7.34,33.48,12.8,52.67,14.38v25.9
				c0,3.01,2.43,5.44,5.44,5.44h32.3c3.01,0,5.44-2.43,5.44-5.44v-29.1c35.25-7.5,57.76-32.44,57.76-64.55
				c0-32.3-17.29-52.18-57.76-66.47c-25.83-9.31-35.89-15.65-35.89-22.62c0-8.36,8.25-13.16,22.62-13.16
				c21.98,0,36.53,6.99,44.64,10.89c1.46,0.7,3.15,0.72,4.63,0.04s2.57-1.97,2.99-3.54l9.8-36.88c0.68-2.56-0.58-5.24-3-6.34
				c-9.08-4.15-23.31-9.63-44.47-11.01v-23.54c0-3.01-2.43-5.44-5.44-5.44h-31.99c-3.01,0-5.44,2.43-5.44,5.44v26.59
				C464.5-38.2,443.5-14.58,443.5,16.36c0,38.88,33.37,55.09,62.45,64.87c25.9,8.63,31.2,15.53,31.2,23.24
				C537.15,115.38,523.62,119.26,510.94,119.26z"/>
			<path class="st0" d="M509.4,70.92c-38.57-12.97-55.03-29.29-55.03-54.55c0-27.09,18.95-46.81,50.7-52.74
				c2.58-0.48,4.44-2.73,4.44-5.35v-25.56h21.11v23.28c0,2.94,2.34,5.35,5.28,5.44c18.92,0.57,31.91,4.51,41.36,8.44l-6.92,26.09
				c-9.27-4.12-23.55-9.18-43.4-9.18c-24.7,0-33.5,12.42-33.5,24.04c0,14.57,15.14,22.78,43.11,32.87
				c36.37,12.84,50.54,28.6,50.54,56.22c0,28.3-20.39,49.25-53.2,54.68c-2.62,0.43-4.55,2.7-4.55,5.36v28.17h-21.42v-25.56
				c0-2.91-2.29-5.3-5.19-5.43c-20.62-0.93-38.62-6.4-49.37-11.47l7.02-27.39c11.41,5.41,29.45,11.87,50.59,11.87
				c22.53,0,37.09-10.08,37.09-25.67C548.03,87.31,532.58,78.64,509.4,70.92z"/>
		</g>
	</g>
</g>
<g id="Capa_1">
	<g>
		<g>
			<path class="st0" d="M213.77,119.26c-23.1,0-42.22-8.58-51.56-13.69c-1.47-0.81-3.23-0.89-4.78-0.22
				c-1.54,0.67-2.68,2.01-3.1,3.64l-9.79,38.18c-0.62,2.4,0.47,4.91,2.64,6.11c13.28,7.34,33.48,12.8,52.67,14.38v25.9
				c0,3.01,2.43,5.44,5.44,5.44h32.3c3.01,0,5.44-2.43,5.44-5.44v-29.1c35.25-7.5,57.76-32.44,57.76-64.55
				c0-32.3-17.29-52.18-57.76-66.47c-25.82-9.31-35.89-15.65-35.89-22.62c0-8.36,8.25-13.16,22.62-13.16
				c21.99,0,36.53,6.99,44.64,10.89c1.46,0.7,3.15,0.72,4.63,0.04s2.57-1.97,2.99-3.54l9.8-36.88c0.68-2.56-0.58-5.24-3-6.34
				c-9.08-4.15-23.31-9.63-44.47-11.01v-23.54c0-3.01-2.43-5.44-5.44-5.44h-31.99c-3.01,0-5.44,2.43-5.44,5.44v26.59
				c-34.14,7.94-55.15,31.57-55.15,62.51c0,38.88,33.37,55.09,62.45,64.87c25.9,8.63,31.2,15.53,31.2,23.24
				C239.99,115.38,226.45,119.26,213.77,119.26z M212.24,70.92c-38.57-12.97-55.03-29.29-55.03-54.55
				c0-27.09,18.96-46.81,50.7-52.74c2.58-0.48,4.44-2.73,4.44-5.35v-25.56h21.11v23.28c0,2.94,2.34,5.35,5.28,5.44
				c18.92,0.57,31.91,4.51,41.36,8.44l-6.92,26.09c-9.27-4.12-23.55-9.18-43.4-9.18c-24.7,0-33.5,12.42-33.5,24.04
				c0,14.57,15.14,22.78,43.12,32.87c36.37,12.84,50.54,28.6,50.54,56.22c0,28.3-20.39,49.25-53.21,54.68
				c-2.62,0.43-4.55,2.7-4.55,5.36v28.17h-21.42v-25.56c0-2.91-2.29-5.3-5.19-5.43c-20.62-0.93-38.62-6.4-49.37-11.47l7.02-27.39
				c11.41,5.41,29.45,11.87,50.59,11.87c22.53,0,37.09-10.08,37.09-25.67C250.86,87.31,235.42,78.64,212.24,70.92z"/>
		</g>
	</g>
</g>
</svg>
