<?xml version="1.0" encoding="utf-8"?>
<!-- Generator: Adobe Illustrator 16.0.0, SVG Export Plug-In . SVG Version: 6.00 Build 0)  -->
<!DOCTYPE svg PUBLIC "-//W3C//DTD SVG 1.1//EN" "http://www.w3.org/Graphics/SVG/1.1/DTD/svg11.dtd">
<svg version="1.1" id="Layer_4" xmlns="http://www.w3.org/2000/svg" xmlns:xlink="http://www.w3.org/1999/xlink" x="0px" y="0px"
	 width="139.867px" height="20.091px" viewBox="0 0 139.867 20.091" enable-background="new 0 0 139.867 20.091"
	 xml:space="preserve">
<path fill="#9ACA3C" d="M4.909,10.518c0.185-0.46,0.692-1.703,0.192-2.122C4.484,7.879,3.888,9.189,3.715,9.514
	c-0.277,0.521-0.49,1.061-0.642,1.615c-0.043,0.125-0.087,0.25-0.125,0.377c-0.012,0.041-0.007,0.08,0.009,0.115
	c-0.068,0.332-0.112,0.668-0.138,1.012c-0.035-0.559-0.058-1.105-0.075-1.625c-0.025-0.746-0.011-1.483,0.028-2.216
	C2.848,8.77,2.887,8.659,2.799,8.607C2.792,8.604,2.789,8.593,2.783,8.585C2.787,8.523,2.788,8.462,2.792,8.4
	c0.634-0.556,4.41-4.103,2.729-4.538c-0.84-0.218-2.017,1.642-2.601,3.142c0.107-0.959,0.253-1.913,0.427-2.867
	c0.676-0.759,1.141-1.653,1.296-2.668c0.059-0.38,0.234-1.396-0.4-1.466C3.656-0.061,3.203,0.92,3.041,1.346
	C2.626,2.44,2.606,3.685,2.889,4.811C2.747,5.559,2.643,6.316,2.569,7.077C2.55,7.063,2.533,7.049,2.514,7.034
	c0.05-0.037,0.083-0.101,0.069-0.182c-0.089-0.542-1.11-4.119-2.137-3.037C0.011,4.274,0.383,5.072,0.65,5.5
	c0.454,0.728,1.081,1.326,1.813,1.768c0.031,0.019,0.06,0.021,0.085,0.014C2.523,7.552,2.503,7.822,2.486,8.094
	C2.465,8.137,2.443,8.178,2.422,8.221c-0.048,0.099-0.017,0.19,0.047,0.242c-0.025,0.519-0.037,1.036-0.037,1.551
	c-0.491-1.262-1.586-3.008-2.273-2.33C-0.273,8.11,0.288,9.028,0.518,9.421c0.467,0.795,1.127,1.427,1.94,1.858
	c0.001,0.038,0.002,0.077,0.003,0.116c0.054,1.254,0.186,2.508,0.397,3.748c-0.398-0.775-0.906-1.486-1.527-2.104
	c-0.265-0.262-1.001-1.096-1.255-0.383c-0.262,0.734,0.489,1.553,0.97,1.992c0.36,0.328,1.146,1.162,1.744,1.111
	c0.061,0.051,0.129,0.045,0.182,0.006c0.018,0.092,0.035,0.184,0.053,0.275c0.285,1.396,0.612,2.801,1.435,3.986
	c0.102,0.148,0.344,0.012,0.244-0.143c-0.454-0.688-0.799-1.469-1.064-2.297c0.028-0.031,0.026-0.092-0.013-0.117
	c-0.013-0.008-0.023-0.021-0.034-0.035c-0.012-0.037-0.023-0.074-0.034-0.111c0.019-0.008,0.036-0.021,0.052-0.039
	c0.705-0.818,1.597-1.828,1.687-2.955c0.031-0.4-0.041-1.178-0.625-0.928c-0.45,0.191-1.152,1.908-1.333,3.09
	c-0.229-0.988-0.368-2.016-0.456-3.02c0.037,0.004,0.075-0.002,0.108-0.027C3.925,12.743,4.482,11.583,4.909,10.518z M3.922,10.233
	c-0.121,0.285-0.242,0.571-0.359,0.858c-0.006-0.006-0.012-0.013-0.019-0.018C3.644,10.781,3.77,10.5,3.922,10.233z M3.396,12.495
	c0.031-0.012,0.061-0.033,0.084-0.066c0.125-0.184,0.243-0.371,0.356-0.561c0.042-0.066,0.085-0.135,0.128-0.205
	c-0.175,0.324-0.371,0.641-0.603,0.924C3.374,12.555,3.384,12.526,3.396,12.495z M3.39,7.237c0.015,0.034,0.037,0.064,0.066,0.085
	C3.377,7.393,3.3,7.463,3.221,7.532C3.276,7.434,3.333,7.335,3.39,7.237z M0.442,8.646c0.01,0.013,0.021,0.025,0.031,0.038
	c0.058,0.122,0.12,0.24,0.186,0.356c0.154,0.356,0.346,0.687,0.577,0.995C0.892,9.621,0.613,9.154,0.442,8.646z M0.937,13.208
	c-0.026-0.025-0.051-0.055-0.077-0.08c-0.022-0.029-0.045-0.057-0.069-0.084c0.007-0.016,0.011-0.029,0.014-0.045
	c0.146,0.086,0.294,0.225,0.436,0.383C1.145,13.317,1.044,13.258,0.937,13.208z M4.58,14.024c0.042-0.041,0.079-0.074,0.112-0.104
	c-0.231,0.27-0.421,0.582-0.583,0.92C4.231,14.528,4.383,14.227,4.58,14.024z"/>
<path fill="#9ACA3C" d="M136.875,13.446c0.033,0.025,0.072,0.031,0.109,0.027c-0.088,1.004-0.227,2.031-0.457,3.02
	c-0.182-1.182-0.883-2.898-1.332-3.09c-0.586-0.25-0.656,0.527-0.625,0.928c0.09,1.127,0.98,2.137,1.686,2.955
	c0.016,0.018,0.033,0.031,0.053,0.039c-0.012,0.037-0.023,0.074-0.035,0.111c-0.01,0.014-0.02,0.027-0.033,0.035
	c-0.039,0.025-0.041,0.086-0.012,0.117c-0.266,0.828-0.611,1.609-1.064,2.297c-0.102,0.154,0.141,0.291,0.244,0.143
	c0.822-1.186,1.148-2.59,1.434-3.986c0.02-0.092,0.035-0.184,0.053-0.275c0.055,0.039,0.121,0.045,0.184-0.006
	c0.598,0.051,1.383-0.783,1.744-1.111c0.48-0.439,1.23-1.258,0.969-1.992c-0.254-0.713-0.99,0.121-1.254,0.383
	c-0.621,0.617-1.131,1.328-1.527,2.104c0.211-1.24,0.342-2.494,0.396-3.748c0.002-0.039,0.002-0.078,0.004-0.116
	c0.813-0.432,1.473-1.063,1.939-1.858c0.23-0.393,0.791-1.311,0.357-1.737c-0.688-0.678-1.781,1.068-2.273,2.33
	c0-0.515-0.01-1.032-0.035-1.551c0.063-0.052,0.094-0.144,0.047-0.242c-0.021-0.043-0.043-0.084-0.064-0.127
	c-0.018-0.271-0.037-0.542-0.063-0.813c0.025,0.008,0.055,0.005,0.086-0.014c0.732-0.441,1.359-1.04,1.813-1.768
	c0.268-0.428,0.639-1.226,0.203-1.685c-1.025-1.082-2.047,2.495-2.137,3.037c-0.014,0.081,0.02,0.145,0.07,0.182
	c-0.02,0.015-0.037,0.029-0.057,0.043c-0.072-0.761-0.176-1.519-0.318-2.267c0.281-1.126,0.262-2.37-0.152-3.465
	c-0.162-0.426-0.615-1.406-1.203-1.343c-0.635,0.069-0.459,1.086-0.4,1.466c0.156,1.015,0.621,1.909,1.297,2.668
	c0.174,0.954,0.32,1.908,0.426,2.867c-0.584-1.5-1.76-3.359-2.6-3.142c-1.682,0.436,2.096,3.982,2.729,4.538
	c0.004,0.062,0.006,0.123,0.01,0.185c-0.006,0.008-0.008,0.019-0.016,0.022c-0.088,0.052-0.049,0.162,0.027,0.185
	c0.037,0.732,0.053,1.47,0.027,2.216c-0.018,0.52-0.041,1.067-0.076,1.625c-0.025-0.344-0.068-0.68-0.137-1.012
	c0.016-0.035,0.021-0.074,0.008-0.115c-0.037-0.127-0.082-0.252-0.125-0.377c-0.152-0.555-0.365-1.094-0.641-1.615
	c-0.174-0.324-0.77-1.635-1.387-1.118c-0.5,0.419,0.008,1.662,0.193,2.122C135.384,11.583,135.941,12.743,136.875,13.446z
	 M136.322,11.074c-0.006,0.005-0.012,0.012-0.018,0.018c-0.119-0.287-0.238-0.573-0.359-0.858
	C136.097,10.5,136.222,10.781,136.322,11.074z M136.505,12.586c-0.232-0.283-0.428-0.6-0.604-0.924
	c0.043,0.07,0.086,0.139,0.129,0.205c0.113,0.189,0.23,0.377,0.355,0.561c0.023,0.033,0.053,0.055,0.084,0.066
	C136.482,12.526,136.494,12.555,136.505,12.586z M136.646,7.532c-0.08-0.069-0.156-0.14-0.236-0.21
	c0.029-0.021,0.053-0.051,0.066-0.085C136.535,7.335,136.591,7.434,136.646,7.532z M138.63,10.036
	c0.23-0.309,0.424-0.639,0.578-0.995c0.064-0.116,0.127-0.234,0.186-0.356c0.01-0.013,0.02-0.025,0.031-0.038
	C139.253,9.154,138.974,9.621,138.63,10.036z M138.625,13.381c0.143-0.158,0.289-0.297,0.436-0.383
	c0.004,0.016,0.008,0.029,0.016,0.045c-0.023,0.027-0.047,0.055-0.07,0.084c-0.025,0.025-0.051,0.055-0.076,0.08
	C138.822,13.258,138.722,13.317,138.625,13.381z M135.757,14.84c-0.162-0.338-0.352-0.65-0.582-0.92
	c0.033,0.029,0.07,0.063,0.111,0.104C135.484,14.227,135.636,14.528,135.757,14.84z"/>
<g>
	<g>
		<g>
			<rect x="7.146" y="4.415" fill="none" width="52.5" height="15.333"/>
			<text transform="matrix(1 0 0 1 7.146 17.0142)" fill="#046938" font-family="'HeavyEquipment'" font-size="18">NATURE</text>
		</g>
		<defs>
			<filter id="Adobe_OpacityMaskFilter" filterUnits="userSpaceOnUse" x="7.894" y="4.267" width="50.932" height="12.757">
				<feFlood  style="flood-color:white;flood-opacity:1" result="back"/>
				<feBlend  in="SourceGraphic" in2="back" mode="normal"/>
			</filter>
		</defs>
		<mask maskUnits="userSpaceOnUse" x="7.894" y="4.267" width="50.932" height="12.757" id="SVGID_1_">
			<g filter="url(#Adobe_OpacityMaskFilter)">
				
					<image overflow="visible" width="229" height="70" xlink:href="5ABB6978.jpg"  transform="matrix(0.24 0 0 0.24 5.8936 2.2666)">
				</image>
			</g>
		</mask>
		<g opacity="0.32" mask="url(#SVGID_1_)">
			<path fill="#FFFFFF" d="M15.104,4.393h-1.333c-0.252,0-0.162,1.297-0.162,1.909c0,0.702-0.072,3.979-0.072,4.699
				c0,0.523-0.216,0.576-0.288,0.523c-0.27,0-0.27-0.271-0.63-0.649c-0.288-0.774-1.747-4.394-2.035-5.168
				c0-0.342-0.342-0.792-0.342-0.954c0-0.342-0.45-0.432-0.468-0.486H8.388C8.353,4.303,8.154,4.447,8.154,4.573
				C8.083,6.176,7.974,13.737,7.92,15.34c0,0.396-0.18,1.477,0.396,1.602h1.224c0.126-0.035,0.234-0.162,0.288-0.305v-6.069
				c0-0.504,0.36-0.72,0.414-0.702c0.342-0.162,0.415,0.36,0.522,0.648l2.431,6.068c0,0.359,0.414,0.396,0.414,0.414h1.278
				c0.108-0.035,0.216-0.145,0.216-0.234c0-3.492,0.234-6.625,0.234-10.407c0-0.126,0.126-1.242,0.126-1.368
				C15.464,4.699,15.375,4.393,15.104,4.393z M23.384,16.313c0-0.127-0.234-1.063-0.234-1.17c-0.054-0.182-0.288-1.82-0.342-2
				c0-0.053-0.126-0.521-0.126-0.594c-0.288-2.035-0.99-5.276-0.99-5.509c-0.054-0.288-0.234-1.566-0.288-1.873
				c0-0.198-0.378-0.486-0.415-0.468h-1.818c-0.468,0.09-0.468,0.756-0.468,0.702c-0.234,1.17-1.17,6.517-1.404,7.689
				c0,0.594-0.612,2.195-0.756,3.51c0,0.379-0.018,0.432,1.278,0.414c0.18-0.09,0.522-0.035,0.522-0.539
				c0-1.152,0.306-1.279,0.306-1.459l0.054-0.055h2.521c-0.018,0.055,0.234,0.127,0.234,0.342c0,1.549,0.45,1.711,0.522,1.711
				c0.27,0,0.72,0,0.936,0C23.582,17.014,23.33,16.51,23.384,16.313z M19.639,13.323c-0.378,0-0.594-0.232-0.594-0.594v-0.107
				c0.414-2.395,0.864-3.62,0.882-3.637c0.054-0.072,0.072-0.054,0.18-0.054c0.415-0.019,0.937,3.349,0.937,3.746
				C21.043,13.45,20.521,13.323,19.639,13.323z M30.26,5.023c-0.36,0-0.846,0-1.495,0.018c-0.378-0.054-0.756-0.072-1.116-0.072
				c-0.378,0-0.738,0.019-1.098,0.019c-0.126,0-1.207-0.055-1.314-0.055c-0.54,0-0.576,0.253-0.576,0.415
				c0,0.126,0.018,1.008,0.054,1.116l0.18,0.18h1.999c0.45,0,0.522,0.45,0.522,0.954c0,3.115-0.18,3.476-0.18,9.147
				c0.09,0.18,0.252,0.27,0.342,0.27h1.08c0.198-0.053,0.324-0.234,0.342-0.342V7.328c0-0.45,0.162-0.631,1.063-0.631
				c0.054,0,0.63,0.055,1.044,0.055c0.558,0,0.63-0.343,0.63-0.738c0-0.145,0-0.288,0-0.433c0-0.054,0-0.09,0-0.144
				c-0.036-0.126-0.09-0.217-0.162-0.343C31.43,5.077,31.394,5.023,30.26,5.023z M40.376,4.501c-0.216,0-1.404-0.036-1.621,0.324
				c0,2.971,0.054,5.869,0.054,8.841c0,0.953-1.081,1.457-1.152,1.457c-0.36,0-0.558,0.307-0.684,0.162
				c-0.72,0-1.026-0.125-1.675-0.791c-0.054-0.109-0.306-0.344-0.306-0.883c0-2.935,0.162-3.475,0.162-8.787
				c-0.054-0.252-0.342-0.324-0.432-0.324h-1.206c-0.252,0.072-0.342,0.378-0.306,0.522c0,2.322,0.162,5.203,0.162,8.84
				c0.09,0.684,0.162,1.08,0.684,1.729c0.792,0.973,1.242,0.883,1.512,1.152c0.36,0.252,1.099,0.27,1.351,0.27
				c0.486,0,0.918-0.197,1.314-0.215c0.198,0,0.828-0.414,0.828-0.414c0.45-0.234,0.792-0.596,1.152-1.152
				c0.342-0.344,0.378-0.9,0.378-0.938c0-1.188,0.144-5.311,0.144-9.417C40.736,4.573,40.412,4.537,40.376,4.501z M47.143,4.482
				c-1.026,0-1.819-0.054-4.286-0.054l-0.234,0.108v9.454c0,1.043-0.108,1.494-0.108,2.682c0,0.342,0.72,0.289,1.476,0.289
				c0.486,0,0.396-0.686,0.486-0.721c0-1.242-0.18-3.277-0.18-4.088c0-0.828,0.18-1.008,0.522-1.08h1.548
				c0.306,0.162,0.27,0.63,0.36,0.72c0.252,0.773,1.044,5.725,1.422,5.168c0.414,0,1.08,0.09,1.26,0.053
				c0.216-0.035,0.396-0.125,0.36-0.701c0-0.072-0.306-0.721-0.306-0.775c-0.432-2.016-1.314-4.068-1.242-4.807l0.054-0.126
				c1.044-1.044,1.368-1.368,1.368-1.729c0.054-0.107,0.126-0.414,0.126-0.468V7.04c0-0.271-0.216-0.685-0.54-1.188
				C48.998,5.293,48.493,4.591,47.143,4.482z M47.557,9.236c-0.09,0.072-0.414,0.271-0.648,0.234h-2.196
				c-0.072-0.036-0.288-0.036-0.36-0.288c0-0.505-0.054-0.702-0.054-1.603c0-2.143,0.486-1.207,0.594-1.495h1.837
				c0.216-0.054,0.63,0.36,0.828,0.36c0.18,0,0.576,0.828,0.594,1.009C48.151,8.354,48.079,8.84,47.557,9.236z M57.943,14.727
				c-0.144,0-1.134,0.182-1.404,0.182c-1.008,0-2.088,0.053-2.989,0.053c-0.162,0-0.234-0.162-0.234-0.287v-2.809
				c0-0.775,0.432-0.775,0.468-0.775c0.018-0.018,0.486-0.054,0.522-0.054c0.594,0.126,1.494,0.216,1.818,0.18
				c0.198,0,0.54-0.36,0.54-0.522c0-1.44-0.378-1.53-0.36-1.53c-0.342-0.324-0.774-0.126-0.882-0.18
				c-0.72,0-1.368,0.126-1.639,0.126c-0.504,0-0.414-0.774-0.468-0.702V6.823c0.054-0.72,1.44-0.288,1.638-0.414
				c0.126,0,0.829,0.055,0.937,0.055c0.018-0.126,2.143,0.233,2.413,0.18c0.468,0,0.522-0.648,0.522-0.702
				c0-0.468-0.18-1.297-0.18-1.17c-0.342-0.324-0.486-0.36-0.811-0.36c-2.34,0-4.267,0.036-6.212,0.126
				c-0.09,0.072-0.162,0.126-0.18,0.234c0,3.997-0.054,7.581-0.054,11.956c0,0.162,0.36,0.342,0.576,0.287
				c0.558,0,3.277-0.125,5.744-0.125c0.846,0,0.667-0.361,0.828-0.396c0.018-0.072,0.216-0.936,0.234-1.008
				C58.771,14.278,58.321,14.872,57.943,14.727z"/>
		</g>
	</g>
	<rect x="71.504" y="4.415" fill="none" width="61.501" height="15.333"/>
	<text transform="matrix(1 0 0 1 71.5044 17.0142)" fill="#046938" font-family="'HeavyEquipment'" font-size="18">pRODUCT</text>
	<g>
		<g>
			<rect x="62.233" y="2.764" fill="none" width="7.333" height="8.166"/>
			<text transform="matrix(1.0507 0 0 1 62.2329 8.3804)" fill="#8CC541" font-family="'Markella'" font-size="7">of</text>
		</g>
		<g>
			<rect x="60.151" y="10.19" fill="none" width="11.498" height="6.416"/>
			<text transform="matrix(1.0507 0 0 1 60.1509 15.8062)" fill="#8CC541" font-family="'Markella'" font-size="7">the</text>
		</g>
	</g>
</g>
</svg>
