<?xml version="1.0" encoding="utf-8"?>
<!-- Generator: Adobe Illustrator 19.0.0, SVG Export Plug-In . SVG Version: 6.00 Build 0)  -->
<svg version="1.1" xmlns="http://www.w3.org/2000/svg" xmlns:xlink="http://www.w3.org/1999/xlink" x="0px" y="0px"
	 viewBox="0 0 27 28.93" style="enable-background:new 0 0 27 28.93;" xml:space="preserve">
<style type="text/css">
	.st0{fill:#046938;}
	.st1{display:none;}
</style>
<g id="Layer_1">
	<path id="XMLID_293_" class="st0" d="M-74.06,28.42c-0.18-1.19-0.73-2.27-1.55-3.01c-0.75-0.69-1.65-1.04-2.56-1.01
		c-1.58-4.05-4.5-5.78-6.77-6.5c-1.71-0.54-3.26-0.61-4.16-0.59V16c0-0.4-0.32-0.72-0.72-0.72h-5.83c-0.4,0-0.72,0.33-0.72,0.72
		v6.83c-1.09,0.29-2.08,0.88-2.89,1.71c-1.19,1.24-1.79,2.87-1.72,4.59l0.81,14.39c0.01,0.39,0.34,0.69,0.72,0.69h13.45
		c0.38,0,0.7-0.3,0.72-0.69l0.81-14.39c0.07-1.71-0.54-3.35-1.72-4.59c-0.81-0.84-1.8-1.42-2.89-1.71v-4.06
		c0.78-0.02,2.23,0.04,3.78,0.54c2.72,0.88,4.64,2.71,5.75,5.46c-0.61,0.31-1.14,0.82-1.54,1.5c-0.55,0.96-0.77,2.15-0.59,3.34
		c0.35,2.33,2.1,4.03,4.03,4.03c0.17,0,0.32-0.01,0.49-0.04C-75.09,33.27-73.68,30.95-74.06,28.42z M-85.92,29.07l-0.78,13.69
		h-12.06l-0.78-13.69c-0.06-1.33,0.41-2.57,1.32-3.53c0.91-0.95,2.14-1.48,3.46-1.48h4.07c1.32,0,2.55,0.53,3.46,1.48
		C-86.34,26.5-85.87,27.76-85.92,29.07z M-94.78,22.62h-0.17v-5.88h4.4v5.88h-0.17H-94.78z M-77.41,32.16
		c-1.32,0.2-2.61-1.05-2.87-2.79c-0.13-0.87,0.01-1.72,0.41-2.4c0.36-0.63,0.9-1.02,1.52-1.12c0.1-0.01,0.18-0.02,0.28-0.02
		c0.52,0,1.05,0.22,1.5,0.64c0.58,0.53,0.96,1.3,1.09,2.17C-75.23,30.37-76.08,31.95-77.41,32.16z"/>
	<path id="XMLID_22_" class="st0" d="M-74.06-1.86c-0.18-1.19-0.73-2.27-1.55-3.01c-0.75-0.69-1.65-1.04-2.56-1.01
		c-1.58-4.05-4.5-5.78-6.77-6.5c-1.71-0.54-3.26-0.61-4.16-0.59v-1.3c0-0.4-0.32-0.72-0.72-0.72h-5.83c-0.4,0-0.72,0.33-0.72,0.72
		v6.83c-1.09,0.29-2.08,0.88-2.89,1.71c-1.19,1.24-1.79,2.87-1.72,4.59l0.81,14.39c0.01,0.39,0.34,0.69,0.72,0.69h13.45
		c0.38,0,0.7-0.3,0.72-0.69l0.81-14.39c0.07-1.71-0.54-3.35-1.72-4.59c-0.81-0.84-1.8-1.42-2.89-1.71v-4.06
		c0.78-0.02,2.23,0.04,3.78,0.54c2.72,0.88,4.64,2.71,5.75,5.46c-0.61,0.31-1.14,0.82-1.54,1.5c-0.55,0.96-0.77,2.15-0.59,3.34
		c0.35,2.33,2.1,4.03,4.03,4.03c0.17,0,0.32-0.01,0.49-0.04C-75.09,2.99-73.68,0.68-74.06-1.86z"/>
	<path id="XMLID_21_" class="st1" d="M-85.86,29.01l-0.81,14.19h-12.51L-100,29.01c-0.06-1.38,0.42-2.66,1.37-3.66
		c0.95-0.99,2.22-1.54,3.59-1.54h4.22c1.37,0,2.64,0.55,3.59,1.54C-86.3,26.35-85.81,27.65-85.86,29.01z"/>
	<polygon id="XMLID_20_" class="st1" points="-95.05,22.32 -95.22,22.32 -95.22,16.22 -90.65,16.22 -90.65,22.32 -90.83,22.32 	"/>
	<path id="XMLID_19_" class="st1" d="M-77.03,32.21c-1.37,0.21-2.71-1.09-2.98-2.89c-0.14-0.9,0.01-1.79,0.42-2.49
		c0.37-0.65,0.94-1.06,1.57-1.16c0.1-0.01,0.19-0.03,0.29-0.03c0.54,0,1.09,0.23,1.56,0.66c0.6,0.55,1,1.35,1.14,2.25
		C-74.78,30.36-75.66,32-77.03,32.21z"/>
</g>
<g id="Layer_3">
	<path id="XMLID_66_" class="st0" d="M26.94,13.14c-0.18-1.19-0.73-2.27-1.55-3.01c-0.75-0.69-1.65-1.04-2.56-1.01
		c-1.58-4.05-4.5-5.78-6.77-6.5C14.34,2.07,12.79,2,11.89,2.03v-1.3c0-0.4-0.32-0.72-0.72-0.72H5.33c-0.4,0-0.72,0.33-0.72,0.72
		v6.83C3.52,7.84,2.53,8.43,1.73,9.26c-1.19,1.24-1.79,2.87-1.72,4.59l0.81,14.39c0.01,0.39,0.34,0.69,0.72,0.69h13.45
		c0.38,0,0.7-0.3,0.72-0.69l0.81-14.39c0.07-1.71-0.54-3.35-1.72-4.59c-0.81-0.84-1.8-1.42-2.89-1.71V3.48
		c0.78-0.02,2.23,0.04,3.78,0.54c2.72,0.88,4.64,2.71,5.75,5.46c-0.61,0.31-1.14,0.82-1.54,1.5c-0.55,0.96-0.77,2.15-0.59,3.34
		c0.35,2.33,2.1,4.03,4.03,4.03c0.17,0,0.32-0.01,0.49-0.04C25.91,17.99,27.32,15.68,26.94,13.14z"/>
</g>
<g id="Layer_2">
	<path id="XMLID_35_" class="st0" d="M-23.06,13.42c-0.18-1.19-0.73-2.27-1.55-3.01c-0.75-0.69-1.65-1.04-2.56-1.01
		c-1.58-4.05-4.5-5.78-6.77-6.5c-1.71-0.54-3.26-0.61-4.16-0.59V1c0-0.4-0.32-0.72-0.72-0.72h-5.83c-0.4,0-0.72,0.33-0.72,0.72v6.83
		c-1.09,0.29-2.08,0.88-2.89,1.71c-1.19,1.24-1.79,2.87-1.72,4.59l0.81,14.39c0.01,0.39,0.34,0.69,0.72,0.69h13.45
		c0.38,0,0.7-0.3,0.72-0.69l0.81-14.39c0.07-1.71-0.54-3.35-1.72-4.59c-0.81-0.84-1.8-1.42-2.89-1.71V3.76
		c0.78-0.02,2.23,0.04,3.78,0.54c2.72,0.88,4.64,2.71,5.75,5.46c-0.61,0.31-1.14,0.82-1.54,1.5c-0.55,0.96-0.77,2.15-0.59,3.34
		c0.35,2.33,2.1,4.03,4.03,4.03c0.17,0,0.32-0.01,0.49-0.04C-24.09,18.27-22.68,15.95-23.06,13.42z M-34.92,14.07l-0.78,13.69
		h-12.06l-0.78-13.69c-0.06-1.33,0.41-2.57,1.32-3.53c0.91-0.95,2.14-1.48,3.46-1.48h4.07c1.32,0,2.55,0.53,3.46,1.48
		C-35.34,11.5-34.87,12.76-34.92,14.07z M-43.78,7.62h-0.17V1.74h4.4v5.88h-0.17H-43.78z M-26.41,17.16
		c-1.32,0.2-2.61-1.05-2.87-2.79c-0.13-0.87,0.01-1.72,0.41-2.4c0.36-0.63,0.9-1.02,1.52-1.12c0.1-0.01,0.18-0.02,0.28-0.02
		c0.52,0,1.05,0.22,1.5,0.64c0.58,0.53,0.96,1.3,1.09,2.17C-24.23,15.37-25.08,16.95-26.41,17.16z"/>
	<g id="XMLID_123_">
	</g>
	<g id="XMLID_124_">
	</g>
	<g id="XMLID_125_">
	</g>
	<g id="XMLID_126_">
	</g>
	<g id="XMLID_127_">
	</g>
	<g id="XMLID_128_">
	</g>
	<g id="XMLID_129_">
	</g>
	<g id="XMLID_130_">
	</g>
	<g id="XMLID_131_">
	</g>
	<g id="XMLID_132_">
	</g>
	<g id="XMLID_133_">
	</g>
	<g id="XMLID_134_">
	</g>
	<g id="XMLID_135_">
	</g>
	<g id="XMLID_136_">
	</g>
	<g id="XMLID_154_">
	</g>
</g>
</svg>
