<?xml version="1.0" encoding="utf-8"?>
<!-- Generator: Adobe Illustrator 19.0.0, SVG Export Plug-In . SVG Version: 6.00 Build 0)  -->
<svg version="1.1" xmlns="http://www.w3.org/2000/svg" xmlns:xlink="http://www.w3.org/1999/xlink" x="0px" y="0px"
	 viewBox="0 0 27 28.93" style="enable-background:new 0 0 27 28.93;" xml:space="preserve">
<style type="text/css">
	.st0{fill:#046938;}
	.st1{display:none;}
</style>
<g id="Layer_1">
	<path id="XMLID_293_" class="st0" d="M-24.06,28.14c-0.18-1.19-0.73-2.27-1.55-3.01c-0.75-0.69-1.65-1.04-2.56-1.01
		c-1.58-4.05-4.5-5.78-6.77-6.5c-1.71-0.54-3.26-0.61-4.16-0.59v-1.3c0-0.4-0.32-0.72-0.72-0.72h-5.83c-0.4,0-0.72,0.33-0.72,0.72
		v6.83c-1.09,0.29-2.08,0.88-2.89,1.71c-1.19,1.24-1.79,2.87-1.72,4.59l0.81,14.39c0.01,0.39,0.34,0.69,0.72,0.69h13.45
		c0.38,0,0.7-0.3,0.72-0.69l0.81-14.39c0.07-1.71-0.54-3.35-1.72-4.59c-0.81-0.84-1.8-1.42-2.89-1.71v-4.06
		c0.78-0.02,2.23,0.04,3.78,0.54c2.72,0.88,4.64,2.71,5.75,5.46c-0.61,0.31-1.14,0.82-1.54,1.5c-0.55,0.96-0.77,2.15-0.59,3.34
		c0.35,2.33,2.1,4.03,4.03,4.03c0.17,0,0.32-0.01,0.49-0.04C-25.09,32.99-23.68,30.68-24.06,28.14z M-35.92,28.8l-0.78,13.69h-12.06
		l-0.78-13.69c-0.06-1.33,0.41-2.57,1.32-3.53c0.91-0.95,2.14-1.48,3.46-1.48h4.07c1.32,0,2.55,0.53,3.46,1.48
		C-36.34,26.23-35.87,27.48-35.92,28.8z M-44.78,22.34h-0.17v-5.88h4.4v5.88h-0.17H-44.78z M-27.41,31.88
		c-1.32,0.2-2.61-1.05-2.87-2.79c-0.13-0.87,0.01-1.72,0.41-2.4c0.36-0.63,0.9-1.02,1.52-1.12c0.1-0.01,0.18-0.02,0.28-0.02
		c0.52,0,1.05,0.22,1.5,0.64c0.58,0.53,0.96,1.3,1.09,2.17C-25.23,30.1-26.08,31.68-27.41,31.88z"/>
	<path id="XMLID_22_" class="st0" d="M-24.06-2.13c-0.18-1.19-0.73-2.27-1.55-3.01c-0.75-0.69-1.65-1.04-2.56-1.01
		c-1.58-4.05-4.5-5.78-6.77-6.5c-1.71-0.54-3.26-0.61-4.16-0.59v-1.3c0-0.4-0.32-0.72-0.72-0.72h-5.83c-0.4,0-0.72,0.33-0.72,0.72
		v6.83c-1.09,0.29-2.08,0.88-2.89,1.71c-1.19,1.24-1.79,2.87-1.72,4.59l0.81,14.39c0.01,0.39,0.34,0.69,0.72,0.69h13.45
		c0.38,0,0.7-0.3,0.72-0.69l0.81-14.39c0.07-1.71-0.54-3.35-1.72-4.59c-0.81-0.84-1.8-1.42-2.89-1.71v-4.06
		c0.78-0.02,2.23,0.04,3.78,0.54c2.72,0.88,4.64,2.71,5.75,5.46c-0.61,0.31-1.14,0.82-1.54,1.5c-0.55,0.96-0.77,2.15-0.59,3.34
		c0.35,2.33,2.1,4.03,4.03,4.03c0.17,0,0.32-0.01,0.49-0.04C-25.09,2.71-23.68,0.4-24.06-2.13z"/>
	<path id="XMLID_21_" class="st1" d="M-35.86,28.73l-0.81,14.19h-12.51L-50,28.73c-0.06-1.38,0.42-2.66,1.37-3.66
		c0.95-0.99,2.22-1.54,3.59-1.54h4.22c1.37,0,2.64,0.55,3.59,1.54C-36.3,26.07-35.81,27.37-35.86,28.73z"/>
	<polygon id="XMLID_20_" class="st1" points="-45.05,22.04 -45.22,22.04 -45.22,15.94 -40.65,15.94 -40.65,22.04 -40.83,22.04 	"/>
	<path id="XMLID_19_" class="st1" d="M-27.03,31.93c-1.37,0.21-2.71-1.09-2.98-2.89c-0.14-0.9,0.01-1.79,0.42-2.49
		c0.37-0.65,0.94-1.06,1.57-1.16c0.1-0.01,0.19-0.03,0.29-0.03c0.54,0,1.09,0.23,1.56,0.66c0.6,0.55,1,1.35,1.14,2.25
		C-24.78,30.08-25.66,31.72-27.03,31.93z"/>
</g>
<g id="Layer_3">
	<path id="XMLID_66_" class="st0" d="M76.94,12.87c-0.18-1.19-0.73-2.27-1.55-3.01c-0.75-0.69-1.65-1.04-2.56-1.01
		c-1.58-4.05-4.5-5.78-6.77-6.5c-1.71-0.54-3.26-0.61-4.16-0.59v-1.3c0-0.4-0.32-0.72-0.72-0.72h-5.83c-0.4,0-0.72,0.33-0.72,0.72
		v6.83c-1.09,0.29-2.08,0.88-2.89,1.71c-1.19,1.24-1.79,2.87-1.72,4.59l0.81,14.39c0.01,0.39,0.34,0.69,0.72,0.69h13.45
		c0.38,0,0.7-0.3,0.72-0.69l0.81-14.39c0.07-1.71-0.54-3.35-1.72-4.59c-0.81-0.84-1.8-1.42-2.89-1.71V3.21
		c0.78-0.02,2.23,0.04,3.78,0.54c2.72,0.88,4.64,2.71,5.75,5.46c-0.61,0.31-1.14,0.82-1.54,1.5c-0.55,0.96-0.77,2.15-0.59,3.34
		c0.35,2.33,2.1,4.03,4.03,4.03c0.17,0,0.32-0.01,0.49-0.04C75.91,17.71,77.32,15.4,76.94,12.87z"/>
</g>
<g id="Layer_2">
	<path id="XMLID_35_" class="st0" d="M26.94,13.14c-0.18-1.19-0.73-2.27-1.55-3.01c-0.75-0.69-1.65-1.04-2.56-1.01
		c-1.58-4.05-4.5-5.78-6.77-6.5C14.34,2.07,12.79,2,11.89,2.03v-1.3c0-0.4-0.32-0.72-0.72-0.72H5.33c-0.4,0-0.72,0.33-0.72,0.72
		v6.83C3.52,7.84,2.53,8.43,1.73,9.26c-1.19,1.24-1.79,2.87-1.72,4.59l0.81,14.39c0.01,0.39,0.34,0.69,0.72,0.69h13.45
		c0.38,0,0.7-0.3,0.72-0.69l0.81-14.39c0.07-1.71-0.54-3.35-1.72-4.59c-0.81-0.84-1.8-1.42-2.89-1.71V3.48
		c0.78-0.02,2.23,0.04,3.78,0.54c2.72,0.88,4.64,2.71,5.75,5.46c-0.61,0.31-1.14,0.82-1.54,1.5c-0.55,0.96-0.77,2.15-0.59,3.34
		c0.35,2.33,2.1,4.03,4.03,4.03c0.17,0,0.32-0.01,0.49-0.04C25.91,17.99,27.32,15.68,26.94,13.14z M15.08,13.8L14.3,27.48H2.23
		L1.45,13.8c-0.06-1.33,0.41-2.57,1.32-3.53c0.91-0.95,2.14-1.48,3.46-1.48h4.07c1.32,0,2.55,0.53,3.46,1.48
		C14.66,11.23,15.13,12.48,15.08,13.8z M6.22,7.34H6.06V1.46h4.4v5.88h-0.17H6.22z M23.59,16.88c-1.32,0.2-2.61-1.05-2.87-2.79
		c-0.13-0.87,0.01-1.72,0.41-2.4c0.36-0.63,0.9-1.02,1.52-1.12c0.1-0.01,0.18-0.02,0.28-0.02c0.52,0,1.05,0.22,1.5,0.64
		c0.58,0.53,0.96,1.3,1.09,2.17C25.77,15.1,24.92,16.68,23.59,16.88z"/>
	<g id="XMLID_106_">
	</g>
	<g id="XMLID_107_">
	</g>
	<g id="XMLID_108_">
	</g>
	<g id="XMLID_109_">
	</g>
	<g id="XMLID_110_">
	</g>
	<g id="XMLID_111_">
	</g>
	<g id="XMLID_112_">
	</g>
	<g id="XMLID_114_">
	</g>
	<g id="XMLID_115_">
	</g>
	<g id="XMLID_116_">
	</g>
	<g id="XMLID_120_">
	</g>
	<g id="XMLID_121_">
	</g>
	<g id="XMLID_122_">
	</g>
	<g id="XMLID_123_">
	</g>
	<g id="XMLID_124_">
	</g>
</g>
</svg>
